HIERARCHY
ROOT Hips
{
	OFFSET 0.000000 0.000000 0.000000
	CHANNELS 6 Xposition Yposition Zposition Xrotation Yrotation Zrotation
	JOINT LeftUpLeg_virtual
	{
		OFFSET 0.000000 0.000000 0.000000
		CHANNELS 3 Xrotation Yrotation Zrotation
		JOINT LeftUpLeg
		{
			OFFSET 11.394100 -6.187798 -0.413800
			CHANNELS 3 Xrotation Yrotation Zrotation
			JOINT LeftLeg
			{
				OFFSET 0.430247 -32.302673 3.732800
				CHANNELS 3 Xrotation Yrotation Zrotation
				JOINT LeftFoot
				{
					OFFSET -0.430247 -48.264931 -6.423300
					CHANNELS 3 Xrotation Yrotation Zrotation
					JOINT LeftToeBase
					{
						OFFSET 4.230900 -16.068199 23.438400
						CHANNELS 3 Xrotation Yrotation Zrotation
						JOINT LeftToe_End
						{
							OFFSET 4.510700 0.695400 19.974600
							CHANNELS 3 Xrotation Yrotation Zrotation
							End Site
							{
								OFFSET 0 0 0
							}
						}
					}
				}
			}
		}
	}
	JOINT RightUpLeg_virtual
	{
		OFFSET 0.000000 0.000000 0.000000
		CHANNELS 3 Xrotation Yrotation Zrotation
		JOINT RightUpLeg
		{
			OFFSET -11.333700 -6.187798 -0.413800
			CHANNELS 3 Xrotation Yrotation Zrotation
			JOINT RightLeg
			{
				OFFSET -0.430392 -32.302628 3.733000
				CHANNELS 3 Xrotation Yrotation Zrotation
				JOINT RightFoot
				{
					OFFSET 0.430392 -48.264973 -6.423500
					CHANNELS 3 Xrotation Yrotation Zrotation
					JOINT RightToeBase
					{
						OFFSET -4.230900 -16.068199 23.438400
						CHANNELS 3 Xrotation Yrotation Zrotation
						JOINT RightToe_End
						{
							OFFSET -4.510700 0.695400 19.974600
							CHANNELS 3 Xrotation Yrotation Zrotation
							End Site
							{
								OFFSET 0 0 0
							}
						}
					}
				}
			}
		}
	}
	JOINT Spine_virtual
	{
		OFFSET 0.000000 0.000000 0.000000
		CHANNELS 3 Xrotation Yrotation Zrotation
		JOINT Spine
		{
			OFFSET -0.002400 12.777504 0.315300
			CHANNELS 3 Xrotation Yrotation Zrotation
			JOINT Spine1
			{
				OFFSET -0.002067 5.816869 0.032633
				CHANNELS 3 Xrotation Yrotation Zrotation
				JOINT Spine1_split
				{
					OFFSET -0.002067 5.816869 0.032633
					CHANNELS 3 Xrotation Yrotation Zrotation
					JOINT Spine2
					{
						OFFSET -0.002067 5.816869 0.032633
						CHANNELS 3 Xrotation Yrotation Zrotation
						JOINT Neck_virtual
						{
							OFFSET 0.000000 0.000000 0.000000
							CHANNELS 3 Xrotation Yrotation Zrotation
							JOINT Neck
							{
								OFFSET -0.003700 21.199493 -0.826900
								CHANNELS 3 Xrotation Yrotation Zrotation
								JOINT Head
								{
									OFFSET 0.000000 20.442200 4.834800
									CHANNELS 3 Xrotation Yrotation Zrotation
									JOINT HeadTop_End
									{
										OFFSET 0.000000 34.668396 4.968400
										CHANNELS 3 Xrotation Yrotation Zrotation
										End Site
										{
											OFFSET 0 0 0
										}
									}
								}
							}
						}
						JOINT LeftShoulder_virtual
						{
							OFFSET 0.000000 0.000000 0.000000
							CHANNELS 3 Xrotation Yrotation Zrotation
							JOINT LeftShoulder
							{
								OFFSET 3.288150 8.794197 -1.372250
								CHANNELS 3 Xrotation Yrotation Zrotation
								JOINT LeftShoulder_split
								{
									OFFSET 3.288150 8.794197 -1.372250
									CHANNELS 3 Xrotation Yrotation Zrotation
									JOINT LeftArm
									{
										OFFSET 11.953299 -2.279007 -0.146200
										CHANNELS 3 Xrotation Yrotation Zrotation
										JOINT LeftForeArm
										{
											OFFSET 18.448900 0.000000 0.000000
											CHANNELS 3 Xrotation Yrotation Zrotation
											JOINT LeftHand
											{
												OFFSET 29.527798 0.000000 0.000000
												CHANNELS 3 Xrotation Yrotation Zrotation
												End Site
												{
													OFFSET 0 0 0
												}
											}
										}
									}
								}
							}
						}
						JOINT RightShoulder_virtual
						{
							OFFSET 0.000000 0.000000 0.000000
							CHANNELS 3 Xrotation Yrotation Zrotation
							JOINT RightShoulder
							{
								OFFSET -3.249400 8.794197 -1.372250
								CHANNELS 3 Xrotation Yrotation Zrotation
								JOINT RightShoulder_split
								{
									OFFSET -3.249400 8.794197 -1.372250
									CHANNELS 3 Xrotation Yrotation Zrotation
									JOINT RightArm
									{
										OFFSET -11.953299 -2.279007 -0.146200
										CHANNELS 3 Xrotation Yrotation Zrotation
										JOINT RightForeArm
										{
											OFFSET -18.448900 0.000000 0.000000
											CHANNELS 3 Xrotation Yrotation Zrotation
											JOINT RightHand
											{
												OFFSET -29.527802 0.000000 0.000000
												CHANNELS 3 Xrotation Yrotation Zrotation
												End Site
												{
													OFFSET 0 0 0
												}
											}
										}
									}
								}
							}
						}
					}
				}
			}
		}
	}
}
MOTION
Frames: 11
Frame Time: 0.03333333
-2.508169 156.741791 -2.189350 0.000000 0.000000 0.000000 9.011561 3.203871 4.968297 -52.802977 14.071802 4.823077 40.023993 9.674486 -1.764004 38.825992 8.071702 4.482848 -7.248938 0.963707 2.790505 0.000000 0.000000 0.000000 10.681515 5.593606 4.317881 -14.581110 2.042939 -6.231220 28.801323 -8.132986 3.684884 29.717443 -12.736979 15.987871 2.694988 4.407806 -0.941966 0.000000 0.000000 0.000000 9.933694 1.504517 5.065645 -9.580260 1.765260 0.217207 -4.969128 1.417952 0.583317 2.222675 -5.072951 2.766515 0.000000 0.000000 0.000000 -1.693181 0.195269 0.520824 -14.168319 -3.510046 -0.934265 -4.559398 0.780146 1.371672 0.000000 0.000000 0.000000 -6.750159 0.698079 0.237326 14.348361 1.816414 29.023427 11.905815 10.302446 -0.267516 -54.917535 -39.791716 3.743258 -41.930186 -24.128487 2.069965 0.000000 0.000000 0.000000 -6.927069 0.565645 1.337285 2.665901 -9.964067 -33.364070 -0.898397 4.418586 0.793590 -72.546349 33.431918 12.781879 -26.160388 27.457195 1.367146 0.000000 0.000000 0.000000 
-1.465323 157.745956 -4.570023 0.000000 0.000000 0.000000 8.511946 0.976820 5.074519 -52.011832 11.504533 3.447628 41.749917 8.937490 -1.633030 37.282909 7.458013 3.668669 -5.866632 0.805446 2.350371 0.000000 0.000000 0.000000 10.592713 3.366323 4.416304 -15.444613 0.050792 -6.548016 33.044233 -7.097774 3.923379 32.091022 -11.507278 15.675754 5.654621 4.286189 -1.084471 0.000000 0.000000 0.000000 9.890446 -0.024994 5.162836 -9.818887 1.614986 0.380283 -5.041554 1.607756 1.064075 1.719551 -3.298803 1.702108 0.000000 0.000000 0.000000 -0.926544 0.526106 0.660126 -14.379563 -3.774499 0.149151 -5.588118 0.260163 1.339755 0.000000 0.000000 0.000000 -6.432837 0.890679 0.679242 14.434034 1.807504 29.548594 11.206358 8.457616 -0.264787 -56.748736 -41.450803 1.179458 -40.361405 -24.364314 3.898141 0.000000 0.000000 0.000000 -6.282627 0.731072 1.486730 2.767085 -10.039523 -33.542349 -1.233718 4.363519 0.874711 -72.406125 32.886890 12.056073 -26.159947 27.992605 1.290607 0.000000 0.000000 0.000000 
0.013186 159.184906 -7.931774 0.000000 0.000000 0.000000 7.331057 -3.118839 4.856161 -52.505355 8.440945 1.791281 46.336249 6.005083 -1.084945 33.717526 4.810441 1.687881 -4.291904 0.491910 1.282556 0.000000 0.000000 0.000000 10.128127 -1.014270 4.416419 -15.440227 -1.764304 -6.997896 35.441527 -6.381659 3.746986 34.986483 -9.411645 15.198349 4.400827 4.061051 -0.710707 0.000000 0.000000 0.000000 9.463224 -3.792227 5.116534 -9.129186 1.954521 0.714292 -5.022938 2.660520 1.621643 1.638047 -1.331526 0.124112 0.000000 0.000000 0.000000 -0.309238 1.775471 0.830619 -14.789219 -3.516600 0.836031 -7.995956 0.545315 1.310770 0.000000 0.000000 0.000000 -6.281043 2.014515 1.066904 14.933288 2.485330 29.745351 9.968236 6.306521 -0.491434 -62.214854 -42.267021 -3.826955 -37.597927 -27.388594 7.334841 0.000000 0.000000 0.000000 -5.713724 1.828179 1.773869 3.588930 -9.516630 -33.644597 -1.522880 4.076484 0.747433 -72.848523 31.168803 11.585550 -26.460107 28.976541 1.147221 0.000000 0.000000 0.000000 
1.364211 160.781860 -11.224060 0.000000 0.000000 0.000000 5.999926 -8.216296 4.280835 -54.039087 5.769709 0.270793 51.872278 2.512589 -0.330131 28.445692 1.640763 -0.610478 -3.433734 -0.006492 0.137863 0.000000 0.000000 0.000000 9.439967 -7.249177 4.255813 -14.225559 -3.417670 -7.537453 34.984806 -6.288684 3.082084 36.375135 -8.027186 13.023986 1.440946 3.766360 0.350664 0.000000 0.000000 0.000000 8.636677 -10.074809 4.727866 -7.456126 2.770054 1.156642 -4.843368 4.449726 2.217176 1.875561 0.496248 -0.975935 0.000000 0.000000 0.000000 0.018894 3.794702 1.045075 -15.313325 -2.933911 1.117565 -11.214724 1.635552 1.420556 0.000000 0.000000 0.000000 -6.107039 3.915386 1.336120 15.725068 4.027217 29.680556 7.893275 4.479978 -0.582705 -68.531038 -41.200148 -8.454124 -33.937530 -30.861493 12.506247 0.000000 0.000000 0.000000 -5.184100 3.814406 2.168695 4.898171 -8.534913 -33.808057 -1.881686 3.672062 0.341636 -73.789621 29.299729 11.469507 -26.844971 30.002569 0.819014 0.000000 0.000000 0.000000 
2.273237 162.330933 -14.191578 0.000000 0.000000 0.000000 4.990791 -14.380613 3.456414 -55.371913 4.095892 -0.802632 55.842752 0.287242 0.205665 21.855268 0.133087 -1.647408 -3.452184 -0.585649 -0.768779 0.000000 0.000000 0.000000 8.955076 -15.252495 3.995279 -12.320674 -4.815292 -8.406357 32.225447 -6.542756 2.126173 36.232122 -7.796089 8.642458 0.859417 3.397043 2.164325 0.000000 0.000000 0.000000 7.638127 -18.285716 4.068213 -5.137327 3.970491 1.602675 -4.462371 6.729538 2.813841 2.334391 1.253835 -0.897337 0.000000 0.000000 0.000000 0.103458 6.304889 1.323174 -15.621273 -2.259849 1.231465 -14.210882 3.418492 1.768403 0.000000 0.000000 0.000000 -5.679753 6.321979 1.468639 16.684767 6.387753 29.361310 5.575000 3.085225 -0.774866 -72.760339 -39.202547 -10.303423 -30.763548 -33.166480 18.266105 0.000000 0.000000 0.000000 -4.689452 6.472513 2.651135 6.404781 -7.253640 -34.167424 -2.259759 3.212996 -0.485231 -74.971100 28.352289 11.688473 -27.232318 31.000384 0.286445 0.000000 0.000000 0.000000 
2.598494 164.014069 -17.245617 0.000000 0.000000 0.000000 4.638697 -22.590781 2.704178 -55.324949 3.344077 -1.085011 56.692527 0.200072 0.101305 15.148948 1.278375 -0.443672 -3.782971 -1.085392 -1.536601 0.000000 0.000000 0.000000 8.129190 -24.757008 3.598207 -10.964058 -6.085881 -9.716876 29.336902 -6.476451 1.265259 37.063045 -8.103015 3.773627 3.047448 3.020728 4.477649 0.000000 0.000000 0.000000 6.872792 -27.440642 3.277417 -2.678563 5.322096 1.941518 -3.865977 9.207121 3.329315 2.903990 0.170131 -0.682582 0.000000 0.000000 0.000000 0.133148 8.964101 1.606257 -15.518347 -1.749472 1.389605 -16.110365 5.554496 2.403167 0.000000 0.000000 0.000000 -4.944144 8.943848 1.411967 17.769091 8.982675 28.684288 3.588761 2.229559 -0.690334 -73.160799 -36.466062 -7.800244 -29.065843 -33.230407 23.312556 0.000000 0.000000 0.000000 -4.038211 9.451722 3.135580 7.889448 -5.873546 -34.524134 -2.700273 2.618728 -1.778628 -76.350593 28.605066 12.107248 -27.486484 31.966122 -0.541042 0.000000 0.000000 0.000000 
2.442592 165.422028 -20.085545 0.000000 0.000000 0.000000 4.946884 -33.504441 2.430410 -53.516906 2.939155 -0.558570 54.300984 1.792349 -0.440770 10.112611 4.355569 2.491541 -4.001484 -1.441608 -2.385641 0.000000 0.000000 0.000000 7.310922 -35.129941 3.070197 -10.941388 -6.929295 -11.184789 27.138095 -5.509217 0.371348 39.864177 -7.956148 0.793064 4.020932 2.506979 6.545804 0.000000 0.000000 0.000000 6.636254 -37.391515 2.660598 -0.596086 6.631556 2.135105 -3.075073 11.632042 3.664817 3.117993 -1.369900 -0.167609 0.000000 0.000000 0.000000 0.275886 11.517922 1.826078 -14.757928 -1.599847 1.650120 -16.187892 7.584164 3.155727 0.000000 0.000000 0.000000 -3.892934 11.510187 1.213560 18.891907 11.358401 27.896794 2.148138 1.638576 0.116384 -70.872727 -33.006657 -1.930615 -29.267746 -31.964449 26.728490 0.000000 0.000000 0.000000 -3.218132 12.394839 3.470805 9.096293 -4.592832 -34.710646 -2.739430 1.932545 -3.042969 -77.904646 29.669915 13.005296 -27.386875 33.155070 -1.810584 0.000000 0.000000 0.000000 
2.057435 165.609802 -22.816563 0.000000 0.000000 0.000000 5.608911 -45.532753 2.699477 -50.344597 2.358073 0.693996 49.929352 3.617189 -0.684824 8.633731 7.621579 5.101338 -4.534482 -1.680382 -2.964848 0.000000 0.000000 0.000000 7.105474 -45.561262 2.875932 -12.142734 -6.587212 -12.273538 25.121186 -3.171266 -0.847678 43.257996 -6.915398 0.280407 1.686227 1.527291 7.629989 0.000000 0.000000 0.000000 6.953557 -47.430654 2.571926 0.778041 7.798314 2.171413 -2.133181 13.832360 3.749166 2.921553 -2.490009 0.212095 0.000000 0.000000 0.000000 0.617368 13.772312 1.907643 -13.323790 -1.904276 1.978322 -13.909874 9.424185 3.765691 0.000000 0.000000 0.000000 -2.665922 13.809755 0.932795 19.914936 13.120141 27.005733 0.843427 1.418719 1.729377 -68.681336 -29.995773 3.759433 -30.061442 -31.635879 28.564621 0.000000 0.000000 0.000000 -2.318904 14.996613 3.550967 9.870784 -3.531821 -34.547855 -2.114637 1.113567 -3.843693 -80.000326 30.677200 14.687427 -26.824853 34.669733 -3.663232 0.000000 0.000000 0.000000 
1.636859 163.958359 -25.221905 0.000000 0.000000 0.000000 6.478968 -56.289003 3.482177 -46.454903 1.601713 2.448911 44.840820 4.386076 -0.347790 11.495945 9.495215 5.368929 -5.149416 -1.874501 -2.911935 0.000000 0.000000 0.000000 7.699040 -55.613528 3.506434 -14.422964 -5.033664 -12.963387 23.503927 -0.351919 -2.173059 45.946898 -5.811587 0.944289 -0.788089 0.621117 7.615848 0.000000 0.000000 0.000000 7.817893 -56.762892 3.275848 1.370992 8.748594 2.077315 -1.108835 15.743224 3.554252 2.020741 -2.614841 0.100784 0.000000 0.000000 0.000000 1.172524 15.597471 1.774732 -11.450167 -2.703046 2.352727 -9.411862 10.897527 3.994398 0.000000 0.000000 0.000000 -1.417827 15.775574 0.562228 20.631440 14.201684 25.591646 -0.282601 1.081845 3.218488 -68.246096 -27.882885 6.674126 -29.777555 -34.319317 29.411413 0.000000 0.000000 0.000000 -1.275358 17.087798 3.317210 10.211398 -2.648088 -33.917104 -0.685715 0.335744 -3.895852 -83.387799 30.744532 17.669754 -25.789326 36.771112 -6.231016 0.000000 0.000000 0.000000 
1.148237 160.289520 -27.459904 0.000000 0.000000 0.000000 7.874512 -64.930333 5.130725 -42.358764 0.837390 4.106627 39.338758 3.608358 0.454021 18.235948 8.960335 2.590731 -5.665486 -2.068507 -2.009902 0.000000 0.000000 0.000000 9.500490 -64.108893 5.616182 -18.033988 -2.609781 -13.549635 22.485565 2.164252 -3.324534 47.732063 -5.245377 1.728264 -0.623496 0.356254 6.769172 0.000000 0.000000 0.000000 9.191557 -64.538184 4.800550 1.485930 9.510824 1.913022 -0.030786 17.354811 3.094181 1.102935 -2.295921 0.529855 0.000000 0.000000 0.000000 1.879979 17.055606 1.417081 -9.324182 -3.777938 2.640689 -3.366934 11.655685 3.709608 0.000000 0.000000 0.000000 -0.145856 17.394127 0.200089 20.811750 14.961464 23.530842 -0.757570 -0.142461 4.150592 -70.538260 -28.134654 5.119343 -27.805294 -40.477214 29.752301 0.000000 0.000000 0.000000 -0.243771 18.667899 2.803475 10.207921 -1.802877 -32.958292 1.081254 0.151036 -3.250932 -88.363018 29.297140 21.954619 -24.327225 39.752558 -9.454820 0.000000 0.000000 0.000000 
0.564981 154.411987 -29.740299 0.000000 0.000000 0.000000 9.542001 -71.343792 7.418593 -38.379133 0.421072 5.408003 33.866673 2.316137 1.224084 26.131626 6.160491 -1.683267 -5.792353 -2.220571 -0.443658 0.000000 0.000000 0.000000 12.641713 -70.364199 9.348689 -23.482252 0.287666 -14.400634 23.757860 4.625496 -4.116785 49.756255 -4.443810 3.393218 0.430116 0.670649 5.275949 0.000000 0.000000 0.000000 10.602403 -70.428471 6.676301 1.461201 10.033140 1.619398 1.143368 18.644818 2.396706 0.799171 -1.649399 1.388586 0.000000 0.000000 0.000000 2.635055 18.201798 0.874223 -7.289508 -5.035463 2.714515 3.247134 11.583232 3.087415 0.000000 0.000000 0.000000 1.105047 18.650738 -0.160605 20.300019 15.380614 21.091085 -0.293253 -1.609712 4.753399 -76.218224 -31.274808 -1.562623 -24.258086 -48.145262 29.813605 0.000000 0.000000 0.000000 0.777460 19.800338 2.120262 10.067524 -0.829338 -31.724740 2.274614 0.692387 -1.798594 -94.231455 26.142267 26.429449 -22.467685 43.063400 -13.291153 0.000000 0.000000 0.000000 
